<svg width="1024" height="1024" viewBox="0 0 1024 1024" fill="none" xmlns="http://www.w3.org/2000/svg">
<g clip-path="url(#clip0_2656_65002)">
<rect width="1024" height="1024" rx="128" fill="#054434"/>
<g clip-path="url(#clip1_2656_65002)">
<path fill-rule="evenodd" clip-rule="evenodd" d="M308.989 436.821C308.989 444.603 315.288 450.913 323.062 450.913H360.328C368.099 450.913 374.401 444.603 374.401 436.821V331.759C374.401 309.269 379.524 285.991 411.835 285.991C440.995 285.991 446.118 307.297 446.118 331.364V436.821C446.118 444.603 452.417 450.913 460.191 450.913H497.456C505.228 450.913 511.529 444.603 511.529 436.821V314.004C511.529 284.413 504.043 224.441 430.356 224.441C391.686 224.441 377.795 244.211 370.263 254.932L370.066 255.213V246.026C370.066 238.245 363.764 231.935 355.993 231.935H323.062C315.288 231.935 308.989 238.245 308.989 246.026V436.821ZM212 436.821C212 444.603 218.301 450.913 226.073 450.913H263.339C271.11 450.913 277.412 444.603 277.412 436.821V246.026C277.412 238.245 271.11 231.935 263.339 231.935H226.073C218.301 231.935 212 238.245 212 246.026V436.821ZM696.698 278.235C698.876 286.256 692.24 293.488 683.936 293.488H648.143C642.181 293.488 637.785 289.026 633.479 284.655C632.499 283.66 631.525 282.671 630.537 281.741C627.613 278.985 622.777 276.916 614.705 276.916C600.913 276.916 596.185 285.597 596.185 291.515C596.185 301.378 612.341 308.086 629.679 313.215C666.719 323.473 706.124 334.521 706.124 381.866C706.124 430.001 665.537 458.409 617.069 458.409C587.125 458.409 543.312 446.138 530.855 401.149C528.625 393.103 535.265 385.812 543.608 385.812H580.758C587.792 385.812 593.187 391.533 597.449 397.135C604.136 405.934 615.763 405.931 617.858 405.931C628.891 405.931 640.712 399.621 640.712 388.968C640.712 377.064 630.529 373.37 605.434 364.258L605.417 364.25C598.904 361.888 591.386 359.155 582.787 355.826C554.416 346.752 530.773 328.208 530.773 298.617C530.773 253.244 570.178 224.441 615.493 224.441C641.514 224.441 684.626 233.804 696.698 278.235ZM276.483 187.186C276.483 204.962 262.179 219.372 244.369 219.372C226.559 219.372 212.001 204.962 212.001 187.186C212.001 169.41 226.559 155 244.369 155C262.179 155 276.483 169.41 276.483 187.186Z" fill="white"/>
<path fill-rule="evenodd" clip-rule="evenodd" d="M744.473 688.098C744.473 703.012 738.577 716.748 728.745 726.558C718.917 736.371 705.153 742.65 690.213 742.65C652.857 742.65 635.165 711.647 635.165 689.276V688.884C635.165 660.234 654.431 631.979 689.425 631.979C704.368 631.979 718.917 638.258 729.139 648.46C739.362 658.665 745.261 672.792 744.473 688.098ZM807.389 591.718C807.389 584.492 801.523 578.605 794.247 578.605H757.975C750.733 578.605 744.867 584.492 744.867 591.718V602.546C739.362 594.694 722.061 571.148 679.596 571.148C619.828 571.148 569.891 616.279 569.891 691.629C569.891 754.03 613.537 803.478 675.27 803.478C716.949 803.478 733.857 784.25 742.115 774.045V856.263C742.115 863.328 747.817 869.018 754.893 869.018H794.608C801.653 869.018 807.389 863.328 807.389 856.263V591.718ZM308.73 588.449C308.73 581.22 302.834 575.333 295.592 575.333H277.274V516.008C277.274 508.683 271.31 502.73 263.972 502.73H225.271C217.933 502.73 212 508.683 212 516.008V779.901C212 787.226 217.933 793.144 225.271 793.144H263.972C271.31 793.144 277.274 787.226 277.274 779.901V624.784H295.592C302.834 624.784 308.73 618.928 308.73 611.668V588.449ZM482.398 662.196C486.721 671.223 488.689 681.036 487.904 690.846C487.116 700.656 484.363 710.077 478.857 718.709C470.602 732.054 456.445 743.042 433.246 743.042C393.926 743.042 378.983 708.507 378.983 688.49V688.098C378.983 663.374 395.499 631.979 432.852 631.979C460.377 631.979 475.319 647.285 482.398 662.196ZM549.899 591.786C549.899 584.523 543.968 578.605 536.692 578.605H497.831C490.524 578.605 484.625 584.523 484.625 591.786V601.759C475.975 588.415 455.921 571.148 420.139 571.148C361.944 571.148 310.436 615.887 310.436 687.315C310.436 749.712 350.936 803.873 420.139 803.873C445.698 803.873 472.828 794.06 484.625 772.867V783.235C484.625 790.529 490.524 796.416 497.831 796.416H536.692C543.968 796.416 549.899 790.529 549.899 783.235V591.786Z" fill="white"/>
<ellipse cx="777.909" cy="420.912" rx="34.0909" ry="34.0912" fill="white"/>
<rect width="1024" height="1024" fill="#054434"/>
<path fill-rule="evenodd" clip-rule="evenodd" d="M341.459 445.602C341.459 452.21 346.809 457.568 353.411 457.568H385.057C391.657 457.568 397.009 452.21 397.009 445.602V356.38C397.009 337.282 401.359 317.513 428.799 317.513C453.562 317.513 457.912 335.606 457.912 356.045V445.602C457.912 452.21 463.261 457.568 469.863 457.568H501.51C508.109 457.568 513.461 452.21 513.461 445.602V341.302C513.461 316.173 507.103 265.244 444.527 265.244C411.687 265.244 399.891 282.033 393.495 291.137L393.328 291.376V283.574C393.328 276.966 387.976 271.607 381.376 271.607H353.411C346.809 271.607 341.459 276.966 341.459 283.574V445.602ZM259.094 445.602C259.094 452.21 264.445 457.568 271.045 457.568H302.692C309.291 457.568 314.643 452.21 314.643 445.602V283.574C314.643 276.966 309.291 271.607 302.692 271.607H271.045C264.445 271.607 259.094 276.966 259.094 283.574V445.602ZM670.711 310.927C672.561 317.738 666.924 323.879 659.873 323.879H629.476C624.414 323.879 620.68 320.091 617.023 316.379C616.191 315.534 615.364 314.694 614.525 313.904C612.042 311.563 607.936 309.807 601.08 309.807C589.368 309.807 585.353 317.178 585.353 322.204C585.353 330.58 599.073 336.276 613.796 340.632C645.252 349.344 678.715 358.725 678.715 398.933C678.715 439.81 644.248 463.934 603.088 463.934C577.658 463.934 540.452 453.514 529.873 415.308C527.98 408.475 533.618 402.283 540.703 402.283H572.252C578.225 402.283 582.807 407.142 586.426 411.899C592.105 419.371 601.979 419.369 603.757 419.369C613.127 419.369 623.166 414.01 623.166 404.964C623.166 394.854 614.518 391.717 593.207 383.979L593.193 383.972C587.662 381.967 581.277 379.645 573.975 376.819C549.881 369.112 529.803 353.365 529.803 328.235C529.803 289.703 563.267 265.244 601.75 265.244C623.847 265.244 660.459 273.194 670.711 310.927ZM313.854 233.605C313.854 248.701 301.707 260.938 286.582 260.938C271.458 260.938 259.094 248.701 259.094 233.605C259.094 218.51 271.458 206.272 286.582 206.272C301.707 206.272 313.854 218.51 313.854 233.605Z" fill="white"/>
<path fill-rule="evenodd" clip-rule="evenodd" d="M711.283 658.992C711.283 671.657 706.275 683.322 697.926 691.653C689.579 699.986 677.891 705.318 665.204 705.318C633.481 705.318 618.455 678.99 618.455 659.992V659.659C618.455 635.329 634.817 611.334 664.534 611.334C677.224 611.334 689.579 616.666 698.261 625.33C706.942 633.996 711.952 645.994 711.283 658.992ZM764.712 577.144C764.712 571.007 759.731 566.008 753.552 566.008H722.749C716.599 566.008 711.617 571.007 711.617 577.144V586.339C706.942 579.671 692.249 559.675 656.188 559.675C605.431 559.675 563.023 598.001 563.023 661.99C563.023 714.982 600.089 756.975 652.514 756.975C687.909 756.975 702.267 740.646 709.28 731.98V801.801C709.28 807.801 714.122 812.633 720.131 812.633H753.858C759.841 812.633 764.712 807.801 764.712 801.801V577.144ZM341.24 574.367C341.24 568.229 336.232 563.229 330.082 563.229H314.527V512.849C314.527 506.628 309.462 501.573 303.23 501.573H270.364C264.133 501.573 259.094 506.628 259.094 512.849V736.953C259.094 743.173 264.133 748.199 270.364 748.199H303.23C309.462 748.199 314.527 743.173 314.527 736.953V605.224H330.082C336.232 605.224 341.24 600.251 341.24 594.086V574.367ZM488.723 636.995C492.394 644.661 494.065 652.994 493.398 661.325C492.729 669.656 490.391 677.657 485.716 684.987C478.705 696.32 466.682 705.651 446.982 705.651C413.59 705.651 400.9 676.324 400.9 659.324V658.992C400.9 637.995 414.926 611.334 446.647 611.334C470.021 611.334 482.711 624.332 488.723 636.995ZM546.045 577.201C546.045 571.034 541.009 566.008 534.83 566.008H501.828C495.623 566.008 490.613 571.034 490.613 577.201V585.671C483.268 574.339 466.238 559.675 435.85 559.675C386.43 559.675 342.688 597.668 342.688 658.326C342.688 711.316 377.082 757.31 435.85 757.31C457.556 757.31 480.596 748.977 490.613 730.979V739.784C490.613 745.978 495.623 750.977 501.828 750.977H534.83C541.009 750.977 546.045 745.978 546.045 739.784V577.201Z" fill="white"/>
<ellipse cx="739.684" cy="432.092" rx="28.9508" ry="28.951" fill="#00D5AD"/>
</g>
</g>
<defs>
<clipPath id="clip0_2656_65002">
<rect width="1024" height="1024" rx="128" fill="white"/>
</clipPath>
<clipPath id="clip1_2656_65002">
<rect width="1024" height="1024" rx="512" fill="white"/>
</clipPath>
</defs>
</svg>
